<?xml version="1.0" encoding="UTF-8" standalone="no"?>
<!-- Created with Inkscape (http://www.inkscape.org/) -->

<svg
   width="102px"
   height="41px"
   viewBox="0 0 52.938168 11.63647"
   version="1.1"
   id="svg1"
   inkscape:version="1.3.2 (091e20e, 2023-11-25, custom)"
   sodipodi:docname="gallery_logo.svg"
   xmlns:inkscape="http://www.inkscape.org/namespaces/inkscape"
   xmlns:sodipodi="http://sodipodi.sourceforge.net/DTD/sodipodi-0.dtd"
   xmlns="http://www.w3.org/2000/svg"
   xmlns:svg="http://www.w3.org/2000/svg">
  <sodipodi:namedview
     id="namedview1"
     pagecolor="#ffffff"
     bordercolor="#000000"
     borderopacity="0.25"
     inkscape:showpageshadow="2"
     inkscape:pageopacity="0.0"
     inkscape:pagecheckerboard="0"
     inkscape:deskcolor="#d1d1d1"
     inkscape:document-units="mm"
     showgrid="true"
     inkscape:zoom="1.3833223"
     inkscape:cx="123.254"
     inkscape:cy="-22.048369"
     inkscape:window-width="1366"
     inkscape:window-height="745"
     inkscape:window-x="-8"
     inkscape:window-y="-8"
     inkscape:window-maximized="1"
     inkscape:current-layer="layer1">
    <inkscape:grid
       id="grid1"
       units="mm"
       originx="-58.24501"
       originy="-99.132602"
       spacingx="0.99999998"
       spacingy="1"
       empcolor="#0099e5"
       empopacity="0.30196078"
       color="#0099e5"
       opacity="0.14901961"
       empspacing="5"
       dotted="false"
       gridanglex="30"
       gridanglez="30"
       visible="true" />
  </sodipodi:namedview>
  <defs
     id="defs1" />
  <g
     inkscape:label="Capa 1"
     inkscape:groupmode="layer"
     id="layer1"
     transform="translate(-58.245011,-99.1326)">
    <path
       id="path9"
       style="fill:none;stroke:#ffffff;stroke-width:2;stroke-linecap:round;stroke-linejoin:round;stroke-dasharray:none;stroke-opacity:1"
       d="m 107.40606,109.50441 0.001,-4.88262 m 2.50482,-4.13332 0.0213,4.01763 -5.04722,10e-4 0.006,-4.01459 m -4.6873,4.62436 1.72099,4.39127 m -5.064767,0.001 -0.0029,-9.01604 h 5.004927 m -4.992125,4.52704 h 5.013305 l -0.012,-4.52704 m -12.143739,4.52534 h 4.069194 m -0.02226,4.489 h -4.056836 l -0.0029,-9.01604 h 4.07001 m -21.216832,4.49705 v 4.53062 m -5.020751,-0.008 v -9.02539 h 5.020748 v 5.0088 h -4.972929 m -3.091142,-2.48542 v -2.51038 h -5.009642 l 0.0029,8.99533 h 5.020746 v -2.99846 h -1.530132 m 19.666241,-6.11295 0.0029,9.10348 h 4.04502 m -11.092956,-9.02483 0.0029,9.03586 h 3.977397" />
  </g>
</svg>
